HIERARCHY
ROOT Hips
{
 OFFSET 0.000000 0.000000 0.000000
 CHANNELS 6 Xposition Yposition Zposition Yrotation Xrotation Zrotation
 JOINT Chest
 {
  OFFSET 0.000000 10.385163 0.011643
  CHANNELS 3 Yrotation Xrotation Zrotation
  JOINT Chest2
  {
   OFFSET 0.000000 11.579334 -0.021150
   CHANNELS 3 Yrotation Xrotation Zrotation
   JOINT Chest3
   {
    OFFSET 0.000000 10.463212 0.000000
    CHANNELS 3 Yrotation Xrotation Zrotation
    JOINT Chest4
    {
     OFFSET 0.000000 10.463212 0.000000
     CHANNELS 3 Yrotation Xrotation Zrotation
     JOINT Neck
     {
      OFFSET 0.000000 14.544862 0.000000
      CHANNELS 3 Yrotation Xrotation Zrotation
      JOINT Head
      {
       OFFSET 0.000000 9.730630 -0.050295
       CHANNELS 3 Yrotation Xrotation Zrotation
       End Site
       {
        OFFSET 0.000000 18.757589 -0.026270
       }
      }
     }
     JOINT RightCollar
     {
      OFFSET -2.985174 8.102313 0.000000
      CHANNELS 3 Yrotation Xrotation Zrotation
      JOINT RightShoulder
      {
       OFFSET -13.558590 0.000000 0.000000
       CHANNELS 3 Yrotation Xrotation Zrotation
       JOINT RightElbow
       {
        OFFSET -28.208579 0.000000 0.000000
        CHANNELS 3 Yrotation Xrotation Zrotation
        JOINT RightWrist
        {
         OFFSET -23.322907 0.000000 0.010349
         CHANNELS 3 Yrotation Xrotation Zrotation
         End Site
         {
          OFFSET -17.603338 0.000000 0.000000
         }
        }
       }
      }
     }
     JOINT LeftCollar
     {
      OFFSET 2.985174 8.102313 0.000000
      CHANNELS 3 Yrotation Xrotation Zrotation
      JOINT LeftShoulder
      {
       OFFSET 13.558590 0.000000 0.000000
       CHANNELS 3 Yrotation Xrotation Zrotation
       JOINT LeftElbow
       {
        OFFSET 28.208579 0.000000 0.000000
        CHANNELS 3 Yrotation Xrotation Zrotation
        JOINT LeftWrist
        {
         OFFSET 23.322907 0.000000 0.010349
         CHANNELS 3 Yrotation Xrotation Zrotation
         End Site
         {
          OFFSET 17.603338 0.000000 0.000000
         }
        }
       }
      }
     }
    }
   }
  }
 }
 JOINT RightHip
 {
  OFFSET -8.341224 -0.057053 -0.005822
  CHANNELS 3 Yrotation Xrotation Zrotation
  JOINT RightKnee
  {
   OFFSET 0.000000 -44.280013 0.005508
   CHANNELS 3 Yrotation Xrotation Zrotation
   JOINT RightAnkle
   {
    OFFSET 0.000000 -43.261728 0.009315
    CHANNELS 3 Yrotation Xrotation Zrotation
    JOINT RightToe
    {
     OFFSET 0.000000 -8.082955 18.257715
     CHANNELS 3 Yrotation Xrotation Zrotation
     End Site
     {
      OFFSET 0.000000 -1.634678 7.189621
     }
    }
   }
  }
 }
 JOINT LeftHip
 {
  OFFSET 8.341224 -0.057053 -0.005822
  CHANNELS 3 Yrotation Xrotation Zrotation
  JOINT LeftKnee
  {
   OFFSET 0.000000 -44.280013 0.005508
   CHANNELS 3 Yrotation Xrotation Zrotation
   JOINT LeftAnkle
   {
    OFFSET 0.000000 -43.261728 0.009315
    CHANNELS 3 Yrotation Xrotation Zrotation
    JOINT LeftToe
    {
     OFFSET 0.000000 -8.082955 18.257715
     CHANNELS 3 Yrotation Xrotation Zrotation
     End Site
     {
      OFFSET 0.000000 -1.634678 7.189621
     }
    }
   }
  }
 }
}
MOTION
Frames: 15
Frame Time: 0.016667
-177.645592 96.104662 -646.234557 129.887748 -7.013290 2.894160 -2.634439 11.104192 1.598192 -1.203601 4.926113 0.770180 -1.203601 4.926113 0.770180 -0.908367 3.693093 0.587004 -0.736719 6.386943 1.305600 -2.184337 -24.289215 3.021630 -1.608536 -3.612309 7.058430 -8.401893 -3.624328 65.195265 71.884242 -7.794953 45.294734 15.072096 -5.329341 -0.605385 -1.977755 -3.755209 -8.451497 10.839380 -9.856693 -61.191714 -65.030703 -17.018459 -30.670103 -2.448980 -4.173184 -10.025170 -17.289641 -10.180390 -2.833991 -13.178215 60.970710 -20.188425 -4.448959 -2.543457 7.406844 1.573813 -7.563176 6.248137 1.442610 0.813252 -1.228314 3.985522 26.863791 -1.096413 12.602318 -12.627674 -3.370420 0.068308 -7.394376 -1.057070
-175.773888 96.591802 -647.670029 130.245472 -6.925239 2.724908 -3.149470 10.936436 1.625340 -1.431678 4.849540 0.793478 -1.431752 4.849564 0.793454 -1.079557 3.635385 0.606111 -0.522030 6.436940 1.074958 -1.627800 -24.210446 2.440757 -1.675333 -3.828764 7.056996 -10.726745 -2.358817 64.435186 72.035255 -8.838210 46.719223 15.284854 -5.799225 -0.564504 -1.958233 -4.662832 -8.499244 9.299227 -9.257445 -60.412487 -65.873803 -19.838946 -31.322028 -2.354299 -5.008933 -10.326482 -16.462950 -11.617180 -2.330837 -11.232766 58.215753 -16.359413 -5.470683 -3.000125 8.074474 0.636118 -10.112862 3.983438 1.033831 2.330659 -0.803059 4.180843 26.135228 -1.121043 12.123225 -11.364959 -4.162821 0.057131 -9.499394 -0.676901
-173.830665 97.297079 -649.086881 130.686195 -6.707101 2.456700 -3.665484 10.554458 1.758396 -1.662130 4.676911 0.861735 -1.662167 4.676948 0.861702 -1.252583 3.505457 0.658647 -0.298433 6.674099 0.704089 -0.973790 -23.783001 1.570278 -1.798754 -4.115214 7.000976 -12.856939 -1.126836 63.207872 72.430268 -10.218638 48.466560 15.394020 -6.506463 -0.238038 -1.724607 -6.672230 -8.808359 7.598155 -6.801582 -59.266071 -66.605525 -24.139099 -32.169417 -2.301073 -6.342769 -10.583243 -15.015231 -12.676580 -1.839700 -9.794128 53.913345 -12.246347 -6.736746 -2.972876 9.238354 -0.090968 -12.501081 -0.128261 1.018952 3.954966 -0.286303 3.979622 24.789090 -0.981410 11.526697 -9.177507 -5.118407 0.019654 -12.106358 -0.173488
-171.841675 98.076939 -650.586384 131.043692 -6.425493 2.272772 -4.096036 10.093710 1.907817 -1.854828 4.469205 0.933935 -1.854828 4.469205 0.933935 -1.397260 3.349117 0.713692 -0.088851 6.999351 0.336423 -0.354344 -23.185639 0.718936 -1.955951 -4.492586 6.904657 -14.479000 -0.026599 61.808240 72.997920 -11.338533 49.943734 15.415417 -7.153484 0.102607 -1.486832 -7.985923 -9.045213 6.502073 -4.807794 -58.779291 -67.303588 -27.587041 -33.288352 -2.200300 -7.513566 -10.945569 -13.275482 -13.079711 -1.710736 -9.007914 48.327070 -8.493612 -7.572761 -2.997755 10.262030 -0.014497 -12.897637 -3.080116 1.374376 5.488252 0.111961 3.448146 23.437072 -0.697044 10.842609 -6.344822 -6.103486 -0.041480 -14.992542 0.320810
-169.829891 98.970249 -652.269259 131.209666 -6.106267 2.236951 -4.429147 9.590078 2.069224 -2.004435 4.242465 1.008135 -2.004536 4.242471 1.008148 -1.509802 3.178602 0.769734 0.123329 7.408892 -0.012697 0.251642 -22.426198 -0.088588 -2.139162 -5.129991 6.776446 -15.453981 1.046606 60.184781 73.934720 -11.937950 50.938583 15.428739 -7.641073 0.312027 -1.304749 -7.924016 -9.099864 6.470974 -4.135240 -59.309789 -67.830236 -29.285583 -35.048316 -1.999519 -8.364323 -11.527944 -10.742134 -12.464515 -2.280278 -9.433609 40.954921 -4.976691 -7.569968 -3.402449 11.046236 0.305881 -9.450622 -3.039191 2.231161 7.068194 0.190675 2.523045 21.922984 -0.101356 10.092888 -2.660577 -7.194616 -0.130061 -18.289069 0.861042
-167.772341 99.938142 -654.034786 131.293895 -5.725689 2.284179 -4.675152 9.005709 2.247766 -2.115168 3.979836 1.086762 -2.115309 3.979862 1.086765 -1.593039 2.981216 0.828570 0.317635 7.909794 -0.357532 0.809508 -21.492416 -0.868471 -2.346346 -5.861012 6.608609 -15.908718 2.034682 58.457717 75.150410 -12.324914 51.607670 15.385104 -8.065051 0.535432 -1.147793 -7.163412 -9.100850 7.003912 -3.974599 -60.310135 -68.092660 -30.148441 -37.283361 -1.688049 -9.057689 -12.267968 -7.949502 -11.128762 -3.119249 -10.638130 32.363974 -1.788331 -7.125214 -3.798349 11.864969 0.271525 -3.984904 -1.402324 3.434300 8.563258 0.163137 1.276718 20.405970 0.683461 9.171936 1.651460 -8.372837 -0.246498 -21.862609 1.414726
-165.625745 100.720596 -655.681967 131.483152 -5.286714 2.401059 -4.801475 8.367902 2.361906 -2.170822 3.694556 1.133629 -2.170822 3.694556 1.133629 -1.634420 2.766945 0.863079 0.408892 8.412175 -0.601341 1.104194 -20.555013 -1.388128 -2.558947 -6.228417 6.382883 -15.899580 2.690688 57.218625 76.217224 -12.692277 51.908621 15.140320 -8.435082 0.913668 -1.094377 -5.954271 -9.087240 7.467712 -4.305635 -61.187812 -68.065660 -30.494812 -39.489591 -1.172988 -9.450122 -13.103565 -6.723787 -9.815981 -3.491588 -10.573200 24.446155 0.658021 -6.689658 -3.643013 12.666138 0.000000 0.000000 -0.000000 4.526656 9.369406 0.408194 0.057915 19.968495 1.203746 7.931272 5.665974 -9.389782 -0.334597 -25.085989 1.740591
-163.291975 101.130603 -657.072015 131.867018 -4.617367 2.665044 -4.709283 7.537175 2.313898 -2.125743 3.326296 1.102808 -2.125656 3.326274 1.102884 -1.599781 2.490894 0.838586 0.311134 8.948083 -0.621524 0.912561 -19.561240 -1.370296 -2.793923 -5.751503 6.065731 -15.081994 2.810270 57.020435 76.945853 -13.005961 51.558236 14.481952 -8.753816 1.617796 -1.322710 -3.791916 -9.042647 7.721962 -5.662141 -61.706825 -67.558509 -29.969573 -41.610386 -0.292062 -9.230759 -14.059787 -9.625966 -8.812205 -2.731590 -5.772426 17.741041 2.043546 -6.408195 -2.197814 13.518574 -0.000000 0.000000 0.000000 5.567061 8.689004 1.364482 -1.226666 21.697568 0.891870 6.063624 8.868663 -9.824202 -0.297997 -27.589921 1.488741
-160.958205 101.540610 -658.462064 132.253639 -3.949801 2.933289 -4.614513 6.707265 2.258221 -2.079747 2.958438 1.068712 -2.079673 2.958390 1.068764 -1.564567 2.215154 0.811526 0.214255 9.484202 -0.638234 0.721862 -18.567156 -1.347958 -3.025818 -5.272440 5.747387 -14.262098 2.932983 56.833534 77.680737 -13.300219 51.191406 13.838417 -9.085163 2.332644 -1.551336 -1.629972 -8.986231 7.987393 -7.009981 -62.250857 -67.063267 -29.433394 -43.719961 0.590548 -9.010705 -15.010422 -12.506802 -7.783986 -1.983608 -1.166538 11.019752 2.956962 -6.212661 -0.787646 14.458062 0.000000 0.000000 -0.000000 6.606872 7.991630 2.291758 -2.552394 23.404676 0.580845 4.107472 12.033537 -10.287989 -0.255428 -30.096014 1.257577
-158.633046 101.702155 -659.834642 132.957199 -3.634792 3.178623 -4.484352 6.156735 2.181209 -2.019057 2.715186 1.027540 -2.019057 2.715186 1.027540 -1.518582 2.033029 0.779497 0.018824 9.836669 -0.631984 0.332390 -17.914713 -1.238935 -3.293198 -4.617404 5.300745 -13.059368 2.530981 57.127337 78.117575 -13.581656 50.588191 13.112560 -9.285811 3.098870 -1.578985 0.117942 -8.931699 7.986049 -8.215303 -62.696752 -66.626551 -28.547541 -45.396162 1.607713 -8.584859 -15.988251 -14.026265 -6.827025 -1.441274 1.637608 6.634235 3.180409 -5.791203 0.493704 15.088265 0.000000 -0.000000 0.000000 6.600509 6.966002 2.934371 -3.477567 26.162202 0.373847 2.507884 14.930354 -10.936294 -0.187447 -31.881297 1.002730
-156.307203 101.524912 -661.195443 134.166170 -3.891881 3.406395 -4.310044 6.051360 2.063639 -1.939874 2.670283 0.972094 -1.939920 2.670307 0.972078 -1.458954 1.999699 0.737403 -0.335251 9.920755 -0.590672 -0.376635 -17.761430 -0.992473 -3.725892 -3.700317 4.618095 -11.272027 1.330727 58.168138 78.045444 -13.900637 49.650881 12.132957 -9.305497 4.073906 -1.197896 1.564819 -8.830251 7.395338 -9.598597 -63.038250 -66.378333 -27.066128 -46.456735 3.007765 -7.690636 -17.217851 -13.331432 -6.039286 -1.263537 1.477399 5.930981 2.797919 -4.446273 2.217043 15.684666 0.000000 -0.000000 0.000000 4.613389 5.489936 3.081392 -3.799469 30.703867 0.211891 1.516158 17.877922 -12.069241 -0.122966 -32.864336 0.878933
-153.989971 101.099209 -662.538775 135.688278 -4.504813 3.590823 -4.102595 6.229660 1.939761 -1.846681 2.751500 0.915919 -1.846673 2.751485 0.915904 -1.388857 2.060869 0.695111 -0.789860 9.822438 -0.532319 -1.287917 -17.944976 -0.666547 -4.207387 -2.584354 3.839525 -9.167728 -0.535208 59.526296 77.682512 -14.213072 48.484487 11.066458 -9.211334 5.102587 -0.605808 2.589159 -8.695763 6.527731 -10.836907 -63.287095 -66.251765 -25.244217 -47.068184 4.473136 -6.521781 -18.455997 -11.308279 -5.334926 -1.219954 -0.442575 7.542363 2.190973 -2.768378 3.834427 15.935338 0.000000 0.000000 0.000000 1.594179 3.685777 2.991062 -3.804702 36.317359 0.009269 0.769330 20.558402 -13.434481 -0.053667 -33.124154 0.711343
-151.717846 100.447561 -663.830085 137.266526 -5.167887 3.665859 -3.859617 6.476582 1.869426 -1.738691 2.862886 0.883423 -1.738691 2.862886 0.883423 -1.307891 2.144678 0.670586 -1.266961 9.614269 -0.484399 -2.242039 -18.328043 -0.346407 -4.401952 -1.323926 3.220080 -7.059735 -2.948702 60.598991 77.349892 -14.354590 47.181531 10.320136 -9.037909 5.760738 -0.226065 2.440200 -8.689640 6.049349 -10.841628 -63.315025 -66.001886 -23.479421 -47.303479 5.347092 -5.605537 -19.045929 -9.230636 -4.594320 -0.935741 -2.143317 9.758442 1.703594 -2.465511 3.718798 14.488713 0.000000 -0.000000 0.000000 -0.706740 1.641468 3.098852 -3.691238 41.919560 0.020576 0.027491 21.830840 -14.182461 -0.000026 -32.173746 0.000588
-149.518890 99.472116 -665.085717 138.828037 -5.721392 3.618381 -3.559698 6.660130 1.879912 -1.606203 2.945692 0.885210 -1.606088 2.945757 0.885190 -1.208489 2.207062 0.671480 -1.769300 9.338661 -0.470550 -3.233762 -18.832083 -0.075233 -4.063508 0.545706 2.739746 -5.046856 -6.201387 61.247344 77.140816 -14.234593 45.704879 10.027241 -8.814755 5.802179 -0.328304 0.257878 -9.069357 6.364389 -8.644738 -62.719085 -65.525908 -21.879750 -47.237426 5.384120 -5.337135 -18.772095 -7.163334 -3.902312 -0.367437 -2.976147 12.321215 1.701271 -4.749600 0.647168 9.813421 0.000000 -0.000000 0.000000 -1.640576 -0.708739 3.595707 -3.091085 47.434758 0.779286 -0.804683 20.865439 -14.039154 -0.084727 -29.122524 -1.302382
-147.365041 98.270727 -666.289327 140.449556 -6.316172 3.460642 -3.223797 6.905452 1.947917 -1.458757 3.055603 0.912125 -1.458467 3.055660 0.912071 -1.097949 2.289633 0.691143 -2.297285 8.955124 -0.475363 -4.274117 -19.532962 0.180693 -3.425952 2.547141 2.489060 -2.994060 -9.937235 61.366769 76.892173 -13.902662 44.130205 10.009079 -8.481405 5.467349 -0.643471 -3.062781 -9.740557 7.122352 -5.283804 -61.695746 -64.924181 -20.323764 -46.754430 4.892515 -5.418163 -17.880638 -5.033856 -3.231811 0.445204 -3.567955 15.477887 1.954030 -8.265240 -4.196154 3.657645 0.000000 -0.000000 0.000000 -1.902081 -3.297981 4.207116 -1.853993 52.899581 2.464242 -1.435029 18.513875 -13.235464 -0.389195 -24.826991 -2.957840
